<?xml version="1.0" encoding="UTF-8"?>
<svg width="100" height="100" viewBox="0 0 100 100" fill="none" xmlns="http://www.w3.org/2000/svg">
  <circle cx="50" cy="50" r="45" fill="#1A1A1A"/>
  <path d="M50 15C30.67 15 15 30.67 15 50C15 69.33 30.67 85 50 85C69.33 85 85 69.33 85 50C85 30.67 69.33 15 50 15ZM50 75C36.19 75 25 63.81 25 50C25 36.19 36.19 25 50 25C63.81 25 75 36.19 75 50C75 63.81 63.81 75 50 75Z" fill="#0099FF"/>
  <path d="M60 40H40C37.24 40 35 42.24 35 45V55C35 57.76 37.24 60 40 60H60C62.76 60 65 57.76 65 55V45C65 42.24 62.76 40 60 40ZM55 50C55 52.76 52.76 55 50 55C47.24 55 45 52.76 45 50C45 47.24 47.24 45 50 45C52.76 45 55 47.24 55 50Z" fill="white"/>
</svg>
