<svg xmlns="http://www.w3.org/2000/svg" viewBox="0 0 36 36" fill="none">
  <path d="M18 36C27.9411 36 36 27.9411 36 18C36 8.05887 27.9411 0 18 0C8.05887 0 0 8.05887 0 18C0 27.9411 8.05887 36 18 36Z" fill="#1A1A2E"/>
  <path fill-rule="evenodd" clip-rule="evenodd" d="M18 33C26.2843 33 33 26.2843 33 18C33 9.71573 26.2843 3 18 3C9.71573 3 3 9.71573 3 18C3 26.2843 9.71573 33 18 33ZM18 36C27.9411 36 36 27.9411 36 18C36 8.05887 27.9411 0 18 0C8.05887 0 0 8.05887 0 18C0 27.9411 8.05887 36 18 36Z" fill="white"/>
  <path d="M14.0625 14.0625C14.0625 11.8661 15.8036 10.125 18 10.125C20.1964 10.125 21.9375 11.8661 21.9375 14.0625V15.75C21.9375 16.3713 22.4412 16.875 23.0625 16.875C23.6838 16.875 24.1875 16.3713 24.1875 15.75V14.0625C24.1875 10.6218 21.4407 7.875 18 7.875C14.5593 7.875 11.8125 10.6218 11.8125 14.0625V15.75C11.8125 16.3713 12.3162 16.875 12.9375 16.875C13.5588 16.875 14.0625 16.3713 14.0625 15.75V14.0625Z" fill="white"/>
  <path fill-rule="evenodd" clip-rule="evenodd" d="M11.25 16.5C10.0074 16.5 9 17.5074 9 18.75V25.5C9 26.7426 10.0074 27.75 11.25 27.75H24.75C25.9926 27.75 27 26.7426 27 25.5V18.75C27 17.5074 25.9926 16.5 24.75 16.5H11.25ZM18 21.375C17.3787 21.375 16.875 21.8787 16.875 22.5C16.875 23.1213 17.3787 23.625 18 23.625C18.6213 23.625 19.125 23.1213 19.125 22.5C19.125 21.8787 18.6213 21.375 18 21.375Z" fill="white"/>
</svg>
